<?xml version="1.0" encoding="UTF-8"?>
<svg xmlns="http://www.w3.org/2000/svg" xmlns:xlink="http://www.w3.org/1999/xlink" width="20px" height="24px" viewBox="0 0 20 23" version="1.1">
<g id="surface1">
<path style=" stroke:none;fill-rule:nonzero;fill:rgb(0%,0%,0%);fill-opacity:1;" d="M 7.402344 0.0820312 C 7.410156 0.109375 7.601562 0.8125 7.828125 1.644531 L 8.238281 3.152344 L 8.1875 3.226562 C 8.0625 3.398438 7.933594 3.714844 7.894531 3.949219 C 7.882812 4.003906 7.863281 4.15625 7.855469 4.285156 C 7.839844 4.492188 7.84375 4.550781 7.882812 4.804688 C 8.039062 5.824219 8.269531 6.605469 8.660156 7.410156 C 8.722656 7.546875 8.773438 7.660156 8.769531 7.667969 C 8.753906 7.683594 8.847656 7.839844 9.035156 8.113281 C 9.484375 8.765625 10.003906 9.289062 10.519531 9.605469 C 11.085938 9.953125 11.597656 10.0625 12.039062 9.925781 C 13.207031 9.566406 13.347656 7.515625 12.34375 5.484375 C 11.703125 4.1875 10.753906 3.1875 9.828125 2.832031 C 9.535156 2.71875 9.144531 2.546875 9.117188 2.515625 C 9.105469 2.5 8.71875 1.941406 8.257812 1.277344 C 7.800781 0.609375 7.417969 0.0546875 7.40625 0.0429688 C 7.398438 0.0351562 7.394531 0.046875 7.402344 0.0820312 Z M 7.402344 0.0820312 "/>
<path style=" stroke:none;fill-rule:nonzero;fill:rgb(0%,0%,0%);fill-opacity:1;" d="M 2.675781 2.046875 C 2.683594 2.0625 2.71875 2.167969 2.753906 2.28125 C 2.792969 2.394531 2.964844 2.910156 3.136719 3.421875 C 3.308594 3.9375 3.492188 4.476562 3.539062 4.625 L 3.628906 4.894531 L 3.550781 5.203125 C 3.507812 5.367188 3.453125 5.5625 3.429688 5.632812 C 3.347656 5.902344 3.328125 6.058594 3.328125 6.511719 C 3.328125 6.96875 3.347656 7.140625 3.441406 7.554688 C 3.625 8.398438 4.011719 9.265625 4.535156 10.027344 C 5.449219 11.359375 6.679688 12.09375 7.53125 11.816406 C 8.027344 11.652344 8.332031 11.21875 8.464844 10.492188 C 8.496094 10.316406 8.496094 9.609375 8.464844 9.378906 C 8.414062 9.003906 8.296875 8.535156 8.167969 8.171875 C 8.078125 7.914062 8.027344 7.796875 7.992188 7.773438 C 7.976562 7.761719 7.925781 7.660156 7.871094 7.546875 C 7.761719 7.304688 7.640625 7.082031 7.453125 6.769531 C 7.167969 6.304688 6.875 5.941406 6.40625 5.488281 C 6.132812 5.222656 6.011719 5.117188 5.84375 5.003906 C 5.605469 4.84375 5.351562 4.722656 5.132812 4.664062 C 4.976562 4.617188 4.660156 4.574219 4.621094 4.585938 C 4.605469 4.59375 4.523438 4.539062 4.4375 4.472656 L 4.277344 4.347656 L 3.492188 3.203125 C 3.058594 2.574219 2.699219 2.046875 2.6875 2.039062 C 2.671875 2.027344 2.671875 2.03125 2.675781 2.046875 Z M 2.675781 2.046875 "/>
<path style=" stroke:none;fill-rule:nonzero;fill:rgb(0%,0%,0%);fill-opacity:1;" d="M 14.710938 2.734375 C 14.675781 2.742188 14.644531 2.753906 14.640625 2.757812 C 14.640625 2.761719 14.703125 2.851562 14.777344 2.964844 C 15.164062 3.527344 15.46875 4.355469 15.566406 5.09375 C 15.609375 5.390625 15.605469 5.410156 15.554688 5.410156 C 15.449219 5.410156 15.207031 5.515625 15.054688 5.625 C 14.5 6.023438 14.113281 6.847656 13.972656 7.925781 C 13.9375 8.199219 13.941406 9.019531 13.980469 9.3125 C 14.1875 10.84375 14.90625 11.957031 15.761719 12.078125 C 16.675781 12.210938 17.480469 11.148438 17.671875 9.566406 C 17.707031 9.257812 17.707031 8.53125 17.671875 8.222656 C 17.597656 7.601562 17.445312 7.082031 17.199219 6.578125 C 17.09375 6.363281 17.074219 6.304688 17.074219 6.226562 C 17.074219 6.101562 17.027344 5.839844 16.960938 5.589844 C 16.695312 4.566406 15.988281 3.40625 15.339844 2.933594 C 15.121094 2.773438 14.859375 2.691406 14.710938 2.734375 Z M 14.710938 2.734375 "/>
<path style=" stroke:none;fill-rule:nonzero;fill:rgb(0%,0%,0%);fill-opacity:1;" d="M 0.226562 9.613281 C 0.0976562 9.6875 0.0234375 9.890625 0.00390625 10.195312 C -0.0429688 11.121094 0.691406 12.738281 1.515625 13.503906 C 1.675781 13.65625 1.699219 13.679688 1.785156 13.863281 C 2.03125 14.363281 2.335938 14.769531 2.820312 15.238281 C 3.289062 15.695312 3.808594 16.058594 4.359375 16.324219 C 5.472656 16.859375 6.464844 16.878906 6.96875 16.382812 C 7.25 16.109375 7.351562 15.65625 7.246094 15.148438 C 7.054688 14.234375 6.273438 13.207031 5.191406 12.449219 C 4.535156 11.988281 3.792969 11.6875 3.117188 11.609375 C 2.644531 11.550781 2.226562 11.640625 1.917969 11.863281 L 1.820312 11.933594 L 1.683594 11.804688 C 1.382812 11.515625 1.035156 11.085938 0.8125 10.722656 C 0.609375 10.390625 0.3125 9.730469 0.3125 9.605469 C 0.3125 9.566406 0.296875 9.570312 0.226562 9.613281 Z M 0.226562 9.613281 "/>
<path style=" stroke:none;fill-rule:nonzero;fill:rgb(0%,0%,0%);fill-opacity:1;" d="M 11.28125 11.890625 C 10.695312 11.929688 10.089844 12.203125 9.667969 12.613281 C 9.375 12.894531 9.191406 13.167969 9.128906 13.425781 C 9.007812 13.898438 8.964844 14.414062 8.996094 15.03125 C 9.039062 15.925781 9.039062 15.921875 9.007812 16.09375 C 8.941406 16.464844 8.75 16.910156 8.523438 17.214844 C 8.464844 17.296875 8.347656 17.417969 8.246094 17.503906 C 7.945312 17.761719 7.628906 18.121094 7.386719 18.480469 C 7.027344 19.023438 6.914062 19.355469 6.886719 19.972656 C 6.855469 20.582031 7.039062 21.183594 7.414062 21.734375 C 7.59375 21.996094 7.957031 22.351562 8.214844 22.519531 C 8.539062 22.730469 8.917969 22.882812 9.300781 22.957031 C 9.4375 22.984375 9.542969 22.992188 9.882812 22.988281 C 10.714844 22.980469 10.960938 22.890625 11.476562 22.40625 C 11.777344 22.121094 11.894531 21.976562 12.148438 21.574219 C 12.257812 21.410156 12.417969 21.175781 12.511719 21.050781 C 12.703125 20.804688 13.039062 20.457031 13.253906 20.28125 C 13.671875 19.941406 14.195312 19.691406 14.769531 19.5625 C 15.175781 19.464844 15.339844 19.449219 15.976562 19.449219 C 16.507812 19.453125 16.609375 19.457031 17 19.503906 C 17.332031 19.542969 17.472656 19.550781 17.609375 19.542969 C 18.203125 19.507812 18.675781 19.28125 19.167969 18.804688 C 19.34375 18.636719 19.441406 18.519531 19.535156 18.386719 C 20.179688 17.417969 20.15625 16.179688 19.46875 15.171875 C 19.3125 14.949219 18.949219 14.582031 18.746094 14.441406 C 18.441406 14.230469 18.128906 14.085938 17.792969 14 C 17.40625 13.902344 17.347656 13.898438 16.859375 13.980469 C 16.332031 14.070312 16.152344 14.085938 15.84375 14.066406 C 15.355469 14.039062 14.867188 13.875 14.472656 13.609375 C 14.386719 13.554688 14.007812 13.230469 13.625 12.890625 C 12.9375 12.277344 12.933594 12.273438 12.730469 12.175781 C 12.402344 12.015625 12.089844 11.929688 11.726562 11.898438 C 11.519531 11.878906 11.457031 11.878906 11.28125 11.890625 Z M 11.28125 11.890625 "/>
</g>
</svg>
